<svg width="209" height="200" viewBox="0 0 209 200" fill="none" xmlns="http://www.w3.org/2000/svg">
<path d="M207.074 97.5507L198.323 92.3507C198.25 91.5353 198.167 90.7207 198.076 89.9069L205.595 83.1757C205.974 82.8421 206.257 82.4204 206.417 81.9513C206.577 81.4823 206.609 80.9816 206.509 80.4975C206.408 80.0134 206.18 79.5622 205.845 79.1873C205.511 78.8124 205.081 78.5264 204.598 78.357L194.981 74.907C194.741 74.1104 194.491 73.3166 194.232 72.5257L200.226 64.532C200.527 64.1329 200.717 63.6666 200.777 63.1774C200.838 62.6881 200.766 62.1922 200.571 61.7368C200.375 61.2814 200.06 60.8816 199.658 60.5756C199.256 60.2695 198.778 60.0673 198.271 59.9882L188.126 58.4069C187.735 57.6694 187.325 56.9445 186.908 56.2195L191.169 47.2507C191.387 46.8029 191.481 46.3089 191.441 45.8162C191.402 45.3236 191.231 44.849 190.945 44.4382C190.659 44.0273 190.267 43.6942 189.808 43.4709C189.348 43.2476 188.836 43.1416 188.322 43.1632L178.034 43.507C177.501 42.8696 176.958 42.2404 176.405 41.6194L178.77 32.0007C178.89 31.5212 178.88 31.0202 178.741 30.5455C178.601 30.0708 178.337 29.6385 177.973 29.2898C177.61 28.941 177.159 28.6877 176.664 28.5539C176.169 28.4201 175.647 28.4104 175.147 28.5257L165.126 30.7882C164.475 30.2632 163.823 29.7445 163.152 29.2257L163.51 19.3632C163.533 18.8696 163.422 18.3787 163.19 17.938C162.957 17.4973 162.609 17.1215 162.181 16.847C161.753 16.5725 161.258 16.4085 160.745 16.3709C160.231 16.3332 159.716 16.4231 159.249 16.6319L149.899 20.7195C149.144 20.3191 148.384 19.9274 147.619 19.5445L145.97 9.81944C145.888 9.33367 145.678 8.87608 145.36 8.49012C145.041 8.10415 144.626 7.80262 144.152 7.61414C143.678 7.42567 143.162 7.35651 142.652 7.41323C142.142 7.46994 141.656 7.65065 141.24 7.9382L132.9 13.6882C132.078 13.4376 131.253 13.198 130.424 12.9695L126.827 3.74445C126.65 3.28168 126.352 2.87033 125.961 2.54976C125.571 2.2292 125.101 2.01015 124.597 1.91357C124.093 1.81699 123.571 1.84611 123.082 1.99816C122.593 2.1502 122.153 2.42007 121.804 2.78195L114.786 10.0069C113.939 9.91945 113.092 9.83195 112.239 9.76945L106.818 1.36945C106.548 0.950764 106.171 0.605169 105.723 0.36549C105.275 0.12581 104.77 0 104.257 0C103.744 0 103.24 0.12581 102.791 0.36549C102.343 0.605169 101.966 0.950764 101.697 1.36945L96.2756 9.76945C95.4286 9.83195 94.575 9.91945 93.728 10.0069L86.7107 2.78819C86.3594 2.4311 85.9194 2.1654 85.4319 2.01597C84.9444 1.86654 84.4253 1.83827 83.9232 1.93383C83.4212 2.02939 82.9527 2.24566 82.5616 2.56234C82.1705 2.87902 81.8696 3.28576 81.6871 3.74445L78.0905 12.9695C77.2565 13.2007 76.429 13.4444 75.6146 13.6944L67.2746 7.9382C66.8596 7.64562 66.3731 7.46051 65.8619 7.40076C65.3507 7.341 64.8321 7.4086 64.3561 7.59704C63.88 7.78547 63.4626 8.08837 63.1441 8.47655C62.8256 8.86473 62.6168 9.32507 62.5377 9.8132L60.8827 19.5445C60.1204 19.9257 59.3646 20.3195 58.6023 20.7195L49.2589 16.6319C48.7926 16.4234 48.2781 16.3335 47.7651 16.3709C47.2521 16.4083 46.7578 16.5717 46.3297 16.8455C45.9016 17.1192 45.5542 17.4941 45.3209 17.9339C45.0876 18.3738 44.9763 18.8639 44.9976 19.3569L45.356 29.2319C44.6914 29.7444 44.0333 30.2632 43.3818 30.7944L33.3607 28.5257C32.8612 28.4146 32.3403 28.4272 31.8472 28.5624C31.3541 28.6975 30.905 28.9508 30.542 29.2983C30.1791 29.6458 29.9143 30.0762 29.7725 30.549C29.6307 31.0217 29.6166 31.5213 29.7315 32.0007L32.0967 41.6194C31.5429 42.2444 31.0021 42.8695 30.4678 43.507L20.1796 43.1632C19.6663 43.1451 19.1566 43.2534 18.6992 43.4777C18.2418 43.702 17.8518 44.0348 17.5664 44.4445C17.281 44.8542 17.1097 45.3272 17.0687 45.8184C17.0277 46.3096 17.1185 46.8027 17.3323 47.2507L21.5935 56.2257C21.183 56.9444 20.7725 57.6695 20.3751 58.4132L10.2368 59.9882C9.72927 60.0664 9.25112 60.268 8.84784 60.5737C8.44456 60.8794 8.1296 61.279 7.93297 61.7346C7.73635 62.1901 7.6646 62.6864 7.72457 63.176C7.78454 63.6657 7.97424 64.1325 8.27557 64.532L14.27 72.5257C14.0093 73.3132 13.7617 74.1069 13.5207 74.9007L3.90359 78.357C3.42291 78.5292 2.99611 78.8166 2.66376 79.1916C2.3314 79.5666 2.10451 80.0169 2.00462 80.4997C1.90474 80.9825 1.93519 81.4818 2.09307 81.9502C2.25095 82.4185 2.53102 82.8404 2.90669 83.1757L10.4322 89.9069C10.3345 90.7194 10.2498 91.5319 10.1781 92.3507L1.42765 97.5507C0.991171 97.8095 0.630889 98.171 0.381023 98.6008C0.131157 99.0307 0 99.5147 0 100.007C0 100.499 0.131157 100.983 0.381023 101.413C0.630889 101.843 0.991171 102.204 1.42765 102.463L10.1781 107.657C10.2498 108.476 10.3345 109.294 10.4322 110.107L2.90669 116.838C2.53102 117.173 2.25095 117.595 2.09307 118.064C1.93519 118.532 1.90474 119.031 2.00462 119.514C2.10451 119.997 2.3314 120.447 2.66376 120.822C2.99611 121.197 3.42291 121.485 3.90359 121.657L13.5207 125.107C13.7617 125.907 14.0158 126.701 14.2765 127.482L8.27557 135.482C7.9758 135.881 7.78741 136.348 7.72829 136.836C7.66916 137.325 7.74126 137.82 7.93774 138.275C8.13423 138.73 8.44858 139.129 8.85095 139.434C9.25331 139.739 9.73035 139.941 10.2368 140.019L20.3751 141.601C20.7725 142.338 21.1765 143.069 21.6 143.788L17.3323 152.757C17.1185 153.205 17.0277 153.698 17.0687 154.189C17.1097 154.68 17.281 155.153 17.5664 155.563C17.8518 155.973 18.2418 156.306 18.6992 156.53C19.1566 156.754 19.6663 156.863 20.1796 156.844L30.4678 156.501C31.0021 157.144 31.5429 157.769 32.0967 158.394L29.7315 168.013C29.6103 168.493 29.62 168.995 29.7596 169.47C29.8993 169.946 30.1642 170.378 30.5289 170.727C30.8936 171.075 31.3457 171.328 31.8417 171.46C32.3377 171.592 32.8608 171.6 33.3607 171.482L43.3818 169.219C44.0333 169.751 44.6914 170.263 45.356 170.776L44.9976 180.651C44.9781 181.143 45.0907 181.632 45.3245 182.071C45.5583 182.51 45.9055 182.884 46.333 183.157C46.7605 183.431 47.254 183.594 47.7663 183.633C48.2785 183.671 48.7924 183.582 49.2589 183.376L58.6088 179.288C59.3581 179.688 60.1204 180.082 60.8892 180.463L62.5377 190.182C62.6166 190.67 62.8251 191.131 63.1431 191.519C63.4611 191.908 63.878 192.212 64.3537 192.401C64.8293 192.591 65.3479 192.66 65.8594 192.602C66.3709 192.544 66.8582 192.36 67.2746 192.069L75.608 186.307C76.429 186.557 77.2565 186.807 78.084 187.032L81.6806 196.257C81.8573 196.72 82.1554 197.133 82.5462 197.454C82.9371 197.775 83.4075 197.994 83.9121 198.09C84.4168 198.186 84.9388 198.156 85.4278 198.002C85.9168 197.849 86.3563 197.577 86.7042 197.213L93.728 189.994C94.575 190.088 95.4221 190.169 96.2756 190.244L101.697 198.638C101.968 199.055 102.345 199.4 102.793 199.638C103.241 199.877 103.745 200.002 104.257 200.002C104.77 200.002 105.274 199.877 105.722 199.638C106.17 199.4 106.547 199.055 106.818 198.638L112.232 190.238C113.086 190.169 113.939 190.088 114.786 189.994L121.804 197.213C122.152 197.575 122.591 197.846 123.079 197.998C123.567 198.151 124.088 198.181 124.592 198.085C125.096 197.989 125.565 197.77 125.955 197.45C126.346 197.13 126.644 196.719 126.821 196.257L130.424 187.032C131.251 186.807 132.079 186.557 132.9 186.307L141.24 192.069C141.657 192.355 142.144 192.534 142.653 192.59C143.163 192.645 143.678 192.575 144.152 192.386C144.625 192.197 145.041 191.896 145.359 191.51C145.677 191.124 145.887 190.667 145.97 190.182L147.625 180.457C148.388 180.082 149.143 179.682 149.899 179.288L159.249 183.376C159.716 183.583 160.231 183.671 160.743 183.633C161.256 183.594 161.75 183.43 162.178 183.156C162.606 182.882 162.953 182.507 163.186 182.067C163.419 181.627 163.531 181.137 163.51 180.644L163.152 170.769C163.817 170.269 164.475 169.751 165.126 169.219L175.147 171.482C175.647 171.599 176.169 171.59 176.664 171.457C177.159 171.324 177.61 171.072 177.974 170.723C178.338 170.375 178.602 169.943 178.742 169.468C178.881 168.994 178.891 168.492 178.77 168.013L176.411 158.394C176.959 157.769 177.499 157.144 178.034 156.501L188.328 156.844C188.842 156.865 189.353 156.758 189.812 156.534C190.27 156.311 190.661 155.977 190.947 155.567C191.232 155.156 191.402 154.682 191.441 154.19C191.48 153.698 191.387 153.204 191.169 152.757L186.908 143.788C187.325 143.069 187.729 142.338 188.126 141.601L198.265 140.019C198.773 139.944 199.253 139.744 199.657 139.439C200.062 139.135 200.378 138.735 200.575 138.279C200.772 137.824 200.843 137.327 200.782 136.837C200.721 136.347 200.529 135.88 200.226 135.482L194.232 127.482C194.491 126.693 194.74 125.901 194.981 125.107L204.598 121.657C205.081 121.487 205.511 121.202 205.845 120.827C206.18 120.452 206.408 120 206.509 119.516C206.609 119.032 206.577 118.532 206.417 118.063C206.257 117.593 205.974 117.172 205.595 116.838L198.069 110.107C198.16 109.294 198.245 108.476 198.323 107.657L207.074 102.463C207.51 102.204 207.871 101.843 208.12 101.413C208.37 100.983 208.501 100.499 208.501 100.007C208.501 99.5147 208.37 99.0307 208.12 98.6008C207.871 98.171 207.51 97.8095 207.074 97.5507ZM148.492 167.201C146.922 166.835 145.563 165.895 144.703 164.582C143.844 163.27 143.553 161.687 143.892 160.172C144.231 158.656 145.173 157.327 146.517 156.468C147.862 155.608 149.503 155.286 151.092 155.569C152.668 155.931 154.034 156.869 154.898 158.185C155.762 159.5 156.055 161.087 155.714 162.607C155.374 164.127 154.427 165.458 153.076 166.317C151.725 167.175 150.084 167.493 148.492 167.201ZM145.514 147.907C144.789 147.758 144.041 147.748 143.312 147.877C142.584 148.006 141.888 148.271 141.266 148.657C140.644 149.044 140.108 149.544 139.687 150.13C139.267 150.715 138.971 151.374 138.816 152.069L135.708 165.982C125.827 170.28 115.1 172.497 104.251 172.482C92.7832 172.482 81.9021 170.044 72.1352 165.688L69.0273 151.782C68.8732 151.086 68.5777 150.426 68.1576 149.84C67.7375 149.254 67.2011 148.753 66.579 148.366C65.957 147.979 65.2614 147.713 64.5322 147.584C63.803 147.455 63.0544 147.465 62.3292 147.613L49.526 150.251C47.1469 147.902 44.9353 145.403 42.9061 142.769H105.202C105.906 142.769 106.375 142.644 106.375 142.032V120.894C106.375 120.276 105.906 120.157 105.202 120.157H86.9843V106.751H106.688C108.486 106.751 116.305 107.244 118.807 116.832C119.589 119.776 121.309 129.369 122.481 132.438C123.654 135.882 128.424 142.763 133.506 142.763H164.546C164.925 142.76 165.302 142.724 165.674 142.657C163.523 145.463 161.158 148.119 158.617 150.594L145.521 147.901L145.514 147.907ZM59.3581 166.907C57.7695 167.19 56.1283 166.868 54.7837 166.009C53.4391 165.149 52.4972 163.82 52.1585 162.305C51.8198 160.789 52.1109 159.207 52.97 157.894C53.8291 156.581 55.1882 155.642 56.7583 155.276C57.5549 155.112 58.3773 155.101 59.1784 155.243C59.9795 155.384 60.7438 155.676 61.4275 156.101C62.1111 156.525 62.7009 157.075 63.1631 157.719C63.6252 158.362 63.9507 159.087 64.121 159.851C64.2913 160.615 64.303 161.404 64.1554 162.172C64.0079 162.941 63.704 163.674 63.2611 164.329C62.8182 164.985 62.245 165.551 61.5742 165.994C60.9034 166.438 60.1482 166.75 59.3516 166.913L59.3581 166.907ZM35.7259 74.9882C36.0558 75.701 36.236 76.4692 36.2564 77.2489C36.2767 78.0285 36.1368 78.8044 35.8446 79.5322C35.5523 80.2599 35.1135 80.9254 34.5532 81.4905C33.9929 82.0556 33.322 82.5093 32.5789 82.8257C31.8357 83.1421 31.0349 83.315 30.2221 83.3345C29.4093 83.3541 28.6005 83.2198 27.8418 82.9395C27.0831 82.6592 26.3893 82.2383 25.8002 81.7008C25.2111 81.1633 24.7381 80.5198 24.4083 79.8069C23.7421 78.3673 23.6994 76.7328 24.2896 75.263C24.8798 73.7932 26.0545 72.6084 27.5553 71.9694C29.0561 71.3304 30.7601 71.2895 32.2924 71.8556C33.8247 72.4217 35.0597 73.5486 35.7259 74.9882ZM28.461 91.507L41.7985 85.8195C43.1672 85.2343 44.2379 84.152 44.7754 82.8103C45.3129 81.4685 45.2733 79.977 44.6653 78.6632L41.9223 72.7069H52.7252V119.419H30.9304C28.2398 110.355 27.4056 100.877 28.461 91.507ZM86.9908 86.9695V73.2007H112.715C114.044 73.2007 122.097 74.6757 122.097 80.4507C122.097 85.2444 115.92 86.9695 110.838 86.9695H86.9908ZM180.484 99.3632C180.484 101.188 180.412 102.994 180.269 104.788H172.45C171.668 104.788 171.355 105.288 171.355 106.019V109.463C171.355 117.576 166.586 119.338 162.409 119.788C158.435 120.213 154.017 118.188 153.476 115.851C151.131 103.194 147.221 100.488 141.044 95.8132C148.707 91.1507 156.682 84.2632 156.682 75.0444C156.682 65.0882 149.567 58.8195 144.719 55.7445C137.917 51.4445 130.385 50.5819 128.352 50.5819H47.4671C58.6434 38.5911 73.6341 30.4752 90.1118 27.4944L99.6442 37.0882C101.801 39.2507 105.378 39.3382 107.626 37.2632L118.298 27.4757C129.171 29.4339 139.469 33.6365 148.48 39.7923C157.491 45.9481 164.998 53.9099 170.482 63.1257L163.178 78.9507C162.572 80.2647 162.533 81.7556 163.071 83.0968C163.608 84.4381 164.677 85.5205 166.045 86.107L180.112 92.0945C180.353 94.4882 180.484 96.907 180.484 99.3632ZM99.6507 19.3319C100.239 18.7927 100.932 18.3698 101.69 18.0877C102.449 17.8055 103.258 17.6696 104.071 17.6876C104.884 17.7056 105.686 17.8772 106.43 18.1926C107.174 18.508 107.846 18.961 108.408 19.5257C108.97 20.0912 109.41 20.7574 109.704 21.4862C109.998 22.215 110.139 22.9922 110.12 23.7734C110.101 24.5545 109.921 25.3244 109.591 26.039C109.262 26.7536 108.789 27.399 108.199 27.9382C107.611 28.4769 106.918 28.8991 106.16 29.1806C105.402 29.4622 104.594 29.5975 103.781 29.579C102.968 29.5604 102.167 29.3882 101.424 29.0724C100.68 28.7565 100.009 28.3031 99.4487 27.7382C98.3161 26.5965 97.7014 25.0707 97.7393 23.495C97.7771 21.9194 98.4645 20.4224 99.6507 19.3319ZM172.124 75.2757C172.791 73.8361 174.027 72.7096 175.56 72.144C177.093 71.5785 178.797 71.6202 180.298 72.2601C181.799 72.8999 182.973 74.0854 183.563 75.5558C184.152 77.0262 184.109 78.6611 183.442 80.1007C183.111 80.8135 182.638 81.457 182.048 81.9943C181.459 82.5316 180.765 82.9523 180.006 83.2324C179.247 83.5124 178.438 83.6463 177.625 83.6264C176.812 83.6065 176.011 83.4331 175.268 83.1163C174.525 82.7995 173.854 82.3454 173.294 81.7799C172.734 81.2144 172.295 80.5486 172.003 79.8206C171.711 79.0925 171.572 78.3164 171.592 77.5366C171.613 76.7568 171.794 75.9885 172.124 75.2757Z" fill="white"/>
</svg>
